<?xml version="1.0" encoding="UTF-8" ?>
<!DOCTYPE svg PUBLIC "-//W3C//DTD SVG 1.1//EN" "http://www.w3.org/Graphics/SVG/1.1/DTD/svg11.dtd">
<svg width="100pt" height="101pt" viewBox="0 0 100 101" version="1.1" xmlns="http://www.w3.org/2000/svg">
<g id="#7498cfff">
<path fill="#7498cf" opacity="1.00" d=" M 0.00 0.00 L 35.55 0.00 C 33.59 1.65 31.98 4.39 29.04 4.04 C 20.43 4.12 11.81 3.81 3.19 4.06 C 3.45 12.66 3.19 21.26 3.40 29.86 C 3.79 32.62 1.46 34.44 0.00 36.44 L 0.00 0.00 Z" />
<path fill="#7498cf" opacity="1.00" d=" M 64.44 0.00 L 99.00 0.00 C 99.07 11.81 99.49 23.64 98.76 35.43 C 97.59 33.72 96.41 31.85 96.60 29.68 C 96.77 21.15 96.49 12.61 96.75 4.08 C 88.16 3.87 79.57 4.09 70.99 4.01 C 68.07 4.32 66.42 1.62 64.44 0.00 Z" />
<path fill="#7498cf" opacity="1.00" d=" M 0.00 65.37 C 1.47 66.84 3.48 68.22 3.29 70.59 C 3.58 79.41 3.04 88.26 3.43 97.09 C 12.16 97.64 20.91 97.16 29.64 97.29 C 32.26 97.07 33.74 99.56 35.53 101.00 L 0.00 101.00 L 0.00 65.37 Z" />
<path fill="#7498cf" opacity="1.00" d=" M 98.46 65.54 C 98.91 68.34 99.22 71.17 99.18 74.00 C 99.03 83.00 99.25 92.00 99.00 101.00 L 64.60 101.00 C 65.87 99.76 67.08 98.46 68.31 97.18 C 77.81 97.39 87.31 97.40 96.81 97.25 C 96.58 89.57 96.72 81.89 96.64 74.22 C 96.57 71.22 97.28 68.28 98.46 65.54 Z" />
</g>
<g id="#6089bcff">
<path fill="#6089bc" opacity="1.00" d=" M 35.55 0.00 L 38.38 0.00 C 35.53 3.06 32.83 7.63 28.06 7.39 C 21.16 7.44 14.26 7.07 7.35 7.28 C 7.14 15.17 7.80 23.10 7.13 30.96 C 5.53 34.13 2.39 36.10 0.00 38.62 L 0.00 36.44 C 1.46 34.44 3.79 32.62 3.40 29.86 C 3.19 21.26 3.45 12.66 3.19 4.06 C 11.81 3.81 20.43 4.12 29.04 4.04 C 31.98 4.39 33.59 1.65 35.55 0.00 Z" />
<path fill="#6089bc" opacity="1.00" d=" M 61.41 0.00 L 64.44 0.00 C 66.42 1.62 68.07 4.32 70.99 4.01 C 79.57 4.09 88.16 3.87 96.75 4.08 C 96.49 12.61 96.77 21.15 96.60 29.68 C 96.41 31.85 97.59 33.72 98.76 35.43 C 99.49 23.64 99.07 11.81 99.00 0.00 L 100.00 0.00 L 100.00 39.32 C 97.51 35.59 92.20 33.10 92.59 28.02 C 92.56 21.10 92.73 14.18 92.65 7.27 C 84.81 6.87 76.93 7.89 69.12 7.08 C 65.98 5.46 64.00 2.32 61.41 0.00 Z" />
<path fill="#6089bc" opacity="1.00" d=" M 36.13 14.04 C 40.91 9.68 45.14 4.73 49.98 0.41 C 54.84 4.76 59.10 9.73 63.95 14.08 C 65.51 15.64 67.82 15.36 69.82 15.39 C 74.60 15.26 79.38 15.33 84.16 15.21 C 85.08 21.85 83.88 28.60 84.83 35.20 C 88.85 40.38 94.20 44.39 98.49 49.36 C 98.87 49.30 99.62 49.19 100.00 49.13 L 100.00 50.70 C 95.23 55.39 90.28 59.91 85.74 64.82 C 84.19 66.29 84.47 68.55 84.42 70.49 C 84.55 75.63 84.67 80.78 84.25 85.92 C 78.16 86.23 72.05 85.69 65.98 86.14 C 64.22 86.22 63.07 87.71 61.87 88.78 C 57.99 92.82 54.10 96.84 49.94 100.59 C 46.08 96.95 42.37 93.15 38.71 89.31 C 37.13 87.80 35.51 85.79 33.07 86.01 C 27.30 85.85 21.52 86.17 15.74 85.89 C 15.18 79.42 16.02 72.91 15.39 66.47 C 11.11 60.47 4.73 56.28 0.40 50.29 C 5.32 45.28 10.76 40.69 15.21 35.28 C 16.31 28.69 15.05 21.90 15.83 15.24 C 20.60 15.39 25.38 15.28 30.16 15.40 C 32.19 15.36 34.56 15.64 36.13 14.04 M 35.64 19.64 C 30.06 19.55 24.47 19.50 18.90 19.65 C 18.94 25.52 19.18 31.41 18.65 37.27 C 13.85 41.19 9.81 45.93 5.28 50.15 C 9.24 55.40 14.34 59.65 18.95 64.32 C 19.06 70.14 18.78 75.96 18.95 81.78 C 23.21 81.48 27.49 81.74 31.75 81.60 C 33.38 81.63 35.13 81.47 36.59 82.29 C 41.38 86.21 45.05 91.38 49.99 95.08 C 55.36 91.33 58.92 85.45 64.33 81.75 C 69.81 81.39 75.33 81.81 80.82 81.68 C 81.50 75.91 80.97 70.09 81.08 64.30 C 85.71 59.87 90.19 55.29 94.74 50.79 C 90.71 45.62 85.65 41.37 81.09 36.69 C 81.11 31.02 81.21 25.35 81.09 19.69 C 75.56 19.32 70.01 19.85 64.49 19.46 C 59.10 15.61 55.29 9.87 50.00 5.85 C 44.82 10.01 40.70 15.34 35.64 19.64 Z" />
<path fill="#6089bc" opacity="1.00" d=" M 41.81 22.85 C 44.45 20.02 47.28 17.38 50.04 14.67 C 53.45 17.71 56.43 21.19 59.80 24.27 C 60.67 25.16 61.72 25.54 62.98 25.44 C 66.93 25.57 70.88 25.38 74.83 25.35 C 75.11 30.19 74.96 35.03 75.05 39.87 C 78.72 43.29 82.20 46.92 85.84 50.39 C 82.51 54.22 78.77 57.66 75.08 61.12 C 74.92 65.97 75.17 70.83 74.78 75.67 C 70.24 75.78 65.69 75.43 61.16 75.80 C 56.87 78.58 54.22 83.28 49.98 86.09 C 45.78 83.21 43.05 78.61 38.83 75.75 C 34.30 75.44 29.75 75.82 25.21 75.66 C 24.84 71.42 25.10 67.16 24.98 62.92 C 25.13 61.29 23.74 60.23 22.79 59.14 C 19.97 56.29 17.03 53.57 14.24 50.70 C 17.43 46.78 21.45 43.64 24.77 39.85 C 25.37 35.05 24.74 30.18 25.19 25.36 C 29.43 25.36 33.67 25.64 37.91 25.36 C 39.62 25.42 40.68 23.88 41.81 22.85 M 50.46 20.43 C 46.56 22.77 43.84 26.51 40.45 29.48 C 37.35 31.67 38.64 35.79 38.36 38.99 C 37.36 39.04 35.36 39.13 34.36 39.18 C 36.10 41.74 38.75 43.15 41.89 42.78 C 41.98 39.55 41.98 36.31 42.05 33.07 C 44.80 30.50 47.44 27.81 50.01 25.05 C 51.71 26.83 53.42 28.59 55.13 30.35 C 55.05 31.63 55.33 32.81 55.95 33.91 C 52.62 34.50 49.35 38.75 50.45 42.48 C 52.23 40.84 54.24 39.43 55.77 37.54 C 56.33 37.69 57.46 37.98 58.02 38.13 C 58.02 39.78 58.02 41.44 58.02 43.10 C 59.78 42.96 62.14 42.95 62.74 45.02 C 61.12 46.68 59.62 48.45 58.05 50.15 C 59.63 50.09 61.22 50.03 62.80 49.98 C 65.47 46.87 68.85 44.36 71.13 40.93 C 71.54 36.98 71.19 33.00 71.23 29.04 C 68.22 29.20 65.21 29.19 62.20 29.01 L 61.78 28.16 C 61.19 28.45 60.02 29.03 59.44 29.32 C 56.39 26.41 53.43 23.42 50.46 20.43 M 28.78 29.14 C 28.81 33.03 28.45 36.95 28.90 40.83 C 31.24 44.51 34.87 47.20 37.83 50.39 C 38.86 50.30 40.91 50.11 41.94 50.02 C 38.96 46.43 35.07 43.67 32.35 39.88 C 31.97 37.62 32.07 35.32 32.00 33.03 C 33.25 32.94 34.51 32.85 35.76 32.76 C 36.43 31.51 37.11 30.26 37.80 29.02 C 34.79 29.14 31.79 29.19 28.78 29.14 M 43.79 33.82 C 42.85 37.71 46.92 40.37 49.78 42.08 C 50.34 38.35 47.36 34.39 43.79 33.82 M 20.41 49.47 C 20.41 49.99 20.40 51.02 20.39 51.54 C 22.73 53.77 25.02 56.05 27.23 58.39 C 28.17 57.67 29.15 56.97 29.92 56.06 C 28.31 53.99 26.34 52.27 24.42 50.50 C 26.36 48.76 28.32 47.04 30.24 45.28 C 29.24 44.50 28.43 43.07 27.03 43.06 C 24.74 45.10 22.73 47.45 20.41 49.47 M 69.96 44.57 C 71.34 46.66 73.11 48.44 75.05 50.00 C 76.52 50.12 78.02 50.20 79.43 50.65 C 77.96 50.77 76.50 50.87 75.03 50.97 C 73.30 52.55 71.55 54.13 70.17 56.04 C 70.68 57.12 71.89 57.62 72.75 58.39 C 75.02 56.01 77.34 53.68 79.76 51.45 C 82.19 53.01 82.23 48.04 79.77 49.52 C 77.43 47.42 75.21 45.18 73.03 42.91 C 71.95 43.36 70.92 43.91 69.96 44.57 M 36.51 52.19 C 33.90 54.74 31.07 57.15 28.90 60.10 C 28.45 64.05 28.79 68.04 28.77 72.00 C 31.78 71.99 34.79 71.99 37.80 71.94 C 37.11 70.82 36.43 69.69 35.73 68.58 C 34.50 68.23 32.01 68.84 32.11 66.85 C 31.91 64.96 31.89 63.02 32.34 61.17 C 35.23 57.36 39.37 54.65 42.01 50.60 C 40.20 51.05 37.91 50.67 36.51 52.19 M 58.02 50.67 C 60.79 54.66 64.74 57.61 67.91 61.26 C 67.97 63.52 68.02 65.78 68.08 68.04 C 66.86 68.20 65.63 68.34 64.40 68.48 C 63.64 69.57 62.89 70.66 62.15 71.76 C 65.18 71.94 68.21 72.06 71.24 71.99 C 71.19 68.05 71.54 64.09 71.11 60.16 C 68.73 56.75 65.25 54.27 62.61 51.06 C 61.08 50.92 59.55 50.79 58.02 50.67 M 49.18 58.12 C 49.01 58.46 48.68 59.15 48.51 59.50 C 46.40 61.72 41.57 64.57 44.82 67.93 C 46.30 66.34 47.79 64.77 49.41 63.32 C 49.66 63.12 50.16 62.73 50.42 62.53 C 51.87 64.44 53.46 66.27 55.29 67.82 L 54.03 68.36 C 54.36 68.91 55.01 70.02 55.34 70.57 C 53.51 72.37 51.77 74.27 49.99 76.13 C 47.41 73.30 44.68 70.61 41.97 67.90 C 41.99 64.81 42.01 61.71 42.00 58.61 C 38.80 57.74 36.23 59.27 34.53 61.93 C 35.49 61.98 37.40 62.09 38.35 62.15 C 38.41 64.57 38.20 67.04 38.69 69.43 C 41.86 73.42 45.90 76.64 49.24 80.51 L 49.19 81.37 L 49.97 81.86 L 50.76 81.37 L 50.71 80.52 C 54.24 76.79 57.85 73.14 61.56 69.59 C 61.59 67.07 61.59 64.55 61.62 62.03 C 62.57 62.03 64.48 62.03 65.43 62.03 C 64.41 60.88 63.43 59.71 62.47 58.51 C 61.04 58.50 59.62 58.51 58.19 58.52 C 58.12 60.00 58.07 61.48 58.04 62.96 C 57.44 63.09 56.25 63.34 55.66 63.47 C 54.41 62.11 53.02 60.89 51.66 59.65 C 51.43 59.29 50.98 58.57 50.76 58.22 L 50.83 57.40 L 50.04 56.90 C 49.83 57.20 49.40 57.81 49.18 58.12 Z" />
<path fill="#6089bc" opacity="1.00" d=" M 67.72 32.68 C 67.84 34.99 67.95 37.31 67.87 39.62 C 66.92 39.25 65.97 38.78 64.92 38.76 L 63.79 38.79 C 63.52 37.18 63.18 35.59 62.78 34.01 C 64.19 34.24 65.61 34.46 67.02 34.68 C 67.20 34.18 67.55 33.18 67.72 32.68 Z" />
<path fill="#6089bc" opacity="1.00" d=" M 92.86 70.06 C 94.71 66.84 97.91 64.67 100.00 61.60 L 100.00 101.00 L 99.00 101.00 C 99.25 92.00 99.03 83.00 99.18 74.00 C 99.22 71.17 98.91 68.34 98.46 65.54 C 97.28 68.28 96.57 71.22 96.64 74.22 C 96.72 81.89 96.58 89.57 96.81 97.25 C 87.31 97.40 77.81 97.39 68.31 97.18 C 67.08 98.46 65.87 99.76 64.60 101.00 L 61.64 101.00 C 64.58 98.05 67.20 93.29 72.01 93.77 C 78.90 93.77 85.79 93.88 92.68 93.86 C 92.84 85.93 92.22 77.97 92.86 70.06 Z" />
<path fill="#6089bc" opacity="1.00" d=" M 0.00 62.68 C 3.03 65.59 7.97 68.10 7.39 73.03 C 7.38 79.94 7.31 86.85 7.34 93.77 C 14.57 94.01 21.81 93.58 29.03 93.85 C 33.42 93.97 35.55 98.49 38.57 101.00 L 35.53 101.00 C 33.74 99.56 32.26 97.07 29.64 97.29 C 20.91 97.16 12.16 97.64 3.43 97.09 C 3.04 88.26 3.58 79.41 3.29 70.59 C 3.48 68.22 1.47 66.84 0.00 65.37 L 0.00 62.68 Z" />
</g>
<g id="#7ea7d9ff">
<path fill="#7ea7d9" opacity="1.00" d=" M 38.38 0.00 L 61.41 0.00 C 64.00 2.32 65.98 5.46 69.12 7.08 C 76.93 7.89 84.81 6.87 92.65 7.27 C 92.73 14.18 92.56 21.10 92.59 28.02 C 92.20 33.10 97.51 35.59 100.00 39.32 L 100.00 49.13 C 99.62 49.19 98.87 49.30 98.49 49.36 C 94.20 44.39 88.85 40.38 84.83 35.20 C 83.88 28.60 85.08 21.85 84.16 15.21 C 79.38 15.33 74.60 15.26 69.82 15.39 C 67.82 15.36 65.51 15.64 63.95 14.08 C 59.10 9.73 54.84 4.76 49.98 0.41 C 45.14 4.73 40.91 9.68 36.13 14.04 C 34.56 15.64 32.19 15.36 30.16 15.40 C 25.38 15.28 20.60 15.39 15.83 15.24 C 15.05 21.90 16.31 28.69 15.21 35.28 C 10.76 40.69 5.32 45.28 0.40 50.29 C 4.73 56.28 11.11 60.47 15.39 66.47 C 16.02 72.91 15.18 79.42 15.74 85.89 C 21.52 86.17 27.30 85.85 33.07 86.01 C 35.51 85.79 37.13 87.80 38.71 89.31 C 42.37 93.15 46.08 96.95 49.94 100.59 C 54.10 96.84 57.99 92.82 61.87 88.78 C 63.07 87.71 64.22 86.22 65.98 86.14 C 72.05 85.69 78.16 86.23 84.25 85.92 C 84.67 80.78 84.55 75.63 84.42 70.49 C 84.47 68.55 84.19 66.29 85.74 64.82 C 90.28 59.91 95.23 55.39 100.00 50.70 L 100.00 61.60 C 97.91 64.67 94.71 66.84 92.86 70.06 C 92.22 77.97 92.84 85.93 92.68 93.86 C 85.79 93.88 78.90 93.77 72.01 93.77 C 67.20 93.29 64.58 98.05 61.64 101.00 L 38.57 101.00 C 35.55 98.49 33.42 93.97 29.03 93.85 C 21.81 93.58 14.57 94.01 7.34 93.77 C 7.31 86.85 7.38 79.94 7.39 73.03 C 7.97 68.10 3.03 65.59 0.00 62.68 L 0.00 38.62 C 2.39 36.10 5.53 34.13 7.13 30.96 C 7.80 23.10 7.14 15.17 7.35 7.28 C 14.26 7.07 21.16 7.44 28.06 7.39 C 32.83 7.63 35.53 3.06 38.38 0.00 Z" />
</g>
<g id="#4a5779ff">
<path fill="#4a5779" opacity="1.00" d=" M 35.64 19.64 C 40.70 15.34 44.82 10.01 50.00 5.85 C 55.29 9.87 59.10 15.61 64.49 19.46 C 70.01 19.85 75.56 19.32 81.09 19.69 C 81.21 25.35 81.11 31.02 81.09 36.69 C 85.65 41.37 90.71 45.62 94.74 50.79 C 90.19 55.29 85.71 59.87 81.08 64.30 C 80.97 70.09 81.50 75.91 80.82 81.68 C 75.33 81.81 69.81 81.39 64.33 81.75 C 58.92 85.45 55.36 91.33 49.99 95.08 C 45.05 91.38 41.38 86.21 36.59 82.29 C 35.13 81.47 33.38 81.63 31.75 81.60 C 27.49 81.74 23.21 81.48 18.95 81.78 C 18.78 75.96 19.06 70.14 18.95 64.32 C 14.34 59.65 9.24 55.40 5.28 50.15 C 9.81 45.93 13.85 41.19 18.65 37.27 C 19.18 31.41 18.94 25.52 18.90 19.65 C 24.47 19.50 30.06 19.55 35.64 19.64 M 41.81 22.85 C 40.68 23.88 39.62 25.42 37.91 25.36 C 33.67 25.64 29.43 25.36 25.19 25.36 C 24.74 30.18 25.37 35.05 24.77 39.85 C 21.45 43.64 17.43 46.78 14.24 50.70 C 17.03 53.57 19.97 56.29 22.79 59.14 C 23.74 60.23 25.13 61.29 24.98 62.92 C 25.10 67.16 24.84 71.42 25.21 75.66 C 29.75 75.82 34.30 75.44 38.83 75.75 C 43.05 78.61 45.78 83.21 49.98 86.09 C 54.22 83.28 56.87 78.58 61.16 75.80 C 65.69 75.43 70.24 75.78 74.78 75.67 C 75.17 70.83 74.92 65.97 75.08 61.12 C 78.77 57.66 82.51 54.22 85.84 50.39 C 82.20 46.92 78.72 43.29 75.05 39.87 C 74.96 35.03 75.11 30.19 74.83 25.35 C 70.88 25.38 66.93 25.57 62.98 25.44 C 61.72 25.54 60.67 25.16 59.80 24.27 C 56.43 21.19 53.45 17.71 50.04 14.67 C 47.28 17.38 44.45 20.02 41.81 22.85 Z" />
<path fill="#4a5779" opacity="1.00" d=" M 64.92 38.76 C 65.97 38.78 66.92 39.25 67.87 39.62 C 66.28 41.54 64.49 43.26 62.74 45.02 C 62.14 42.95 59.78 42.96 58.02 43.10 C 61.22 43.14 64.03 41.75 66.26 39.53 C 65.93 39.34 65.26 38.95 64.92 38.76 Z" />
<path fill="#4a5779" opacity="1.00" d=" M 49.18 58.12 C 49.40 57.81 49.83 57.20 50.04 56.90 L 50.83 57.40 L 50.76 58.22 C 50.37 58.19 49.58 58.14 49.18 58.12 Z" />
<path fill="#4a5779" opacity="1.00" d=" M 49.24 80.51 C 49.61 80.51 50.34 80.51 50.71 80.52 L 50.76 81.37 L 49.97 81.86 L 49.19 81.37 L 49.24 80.51 Z" />
</g>
<g id="#b9d6f0ff">
<path fill="#b9d6f0" opacity="1.00" d=" M 50.46 20.43 C 53.43 23.42 56.39 26.41 59.44 29.32 C 62.58 31.58 61.53 35.72 61.72 39.03 C 62.24 38.97 63.28 38.85 63.79 38.79 L 64.92 38.76 C 65.26 38.95 65.93 39.34 66.26 39.53 C 64.03 41.75 61.22 43.14 58.02 43.10 C 58.02 41.44 58.02 39.78 58.02 38.13 C 58.02 36.46 58.01 34.80 58.00 33.14 C 57.04 32.22 56.08 31.29 55.13 30.35 C 53.42 28.59 51.71 26.83 50.01 25.05 C 47.44 27.81 44.80 30.50 42.05 33.07 C 41.98 36.31 41.98 39.55 41.89 42.78 C 38.75 43.15 36.10 41.74 34.36 39.18 C 35.36 39.13 37.36 39.04 38.36 38.99 C 38.64 35.79 37.35 31.67 40.45 29.48 C 43.84 26.51 46.56 22.77 50.46 20.43 Z" />
<path fill="#b9d6f0" opacity="1.00" d=" M 28.78 29.14 C 31.79 29.19 34.79 29.14 37.80 29.02 C 37.11 30.26 36.43 31.51 35.76 32.76 C 34.51 32.85 33.25 32.94 32.00 33.03 C 32.07 35.32 31.97 37.62 32.35 39.88 C 35.07 43.67 38.96 46.43 41.94 50.02 C 40.91 50.11 38.86 50.30 37.83 50.39 C 34.87 47.20 31.24 44.51 28.90 40.83 C 28.45 36.95 28.81 33.03 28.78 29.14 Z" />
<path fill="#b9d6f0" opacity="1.00" d=" M 62.20 29.01 C 65.21 29.19 68.22 29.20 71.23 29.04 C 71.19 33.00 71.54 36.98 71.13 40.93 C 68.85 44.36 65.47 46.87 62.80 49.98 C 61.22 50.03 59.63 50.09 58.05 50.15 C 59.62 48.45 61.12 46.68 62.74 45.02 C 64.49 43.26 66.28 41.54 67.87 39.62 C 67.95 37.31 67.84 34.99 67.72 32.68 C 66.83 32.76 65.06 32.92 64.17 33.00 C 63.52 31.66 62.85 30.34 62.20 29.01 Z" />
<path fill="#b9d6f0" opacity="1.00" d=" M 43.79 33.82 C 47.36 34.39 50.34 38.35 49.78 42.08 C 46.92 40.37 42.85 37.71 43.79 33.82 Z" />
<path fill="#b9d6f0" opacity="1.00" d=" M 50.45 42.48 C 49.35 38.75 52.62 34.50 55.95 33.91 L 56.45 34.94 C 56.28 35.59 55.94 36.89 55.77 37.54 C 54.24 39.43 52.23 40.84 50.45 42.48 Z" />
<path fill="#b9d6f0" opacity="1.00" d=" M 20.41 49.47 C 22.73 47.45 24.74 45.10 27.03 43.06 C 28.43 43.07 29.24 44.50 30.24 45.28 C 28.32 47.04 26.36 48.76 24.42 50.50 C 26.34 52.27 28.31 53.99 29.92 56.06 C 29.15 56.97 28.17 57.67 27.23 58.39 C 25.02 56.05 22.73 53.77 20.39 51.54 C 20.40 51.02 20.41 49.99 20.41 49.47 Z" />
<path fill="#b9d6f0" opacity="1.00" d=" M 69.96 44.57 C 70.92 43.91 71.95 43.36 73.03 42.91 C 75.21 45.18 77.43 47.42 79.77 49.52 C 79.77 50.00 79.77 50.97 79.76 51.45 C 77.34 53.68 75.02 56.01 72.75 58.39 C 71.89 57.62 70.68 57.12 70.17 56.04 C 71.55 54.13 73.30 52.55 75.03 50.97 C 76.50 50.87 77.96 50.77 79.43 50.65 C 78.02 50.20 76.52 50.12 75.05 50.00 C 73.11 48.44 71.34 46.66 69.96 44.57 Z" />
<path fill="#b9d6f0" opacity="1.00" d=" M 36.51 52.19 C 37.91 50.67 40.20 51.05 42.01 50.60 C 39.37 54.65 35.23 57.36 32.34 61.17 C 31.89 63.02 31.91 64.96 32.11 66.85 C 32.01 68.84 34.50 68.23 35.73 68.58 C 36.43 69.69 37.11 70.82 37.80 71.94 C 34.79 71.99 31.78 71.99 28.77 72.00 C 28.79 68.04 28.45 64.05 28.90 60.10 C 31.07 57.15 33.90 54.74 36.51 52.19 Z" />
<path fill="#b9d6f0" opacity="1.00" d=" M 58.02 50.67 C 59.55 50.79 61.08 50.92 62.61 51.06 C 65.25 54.27 68.73 56.75 71.11 60.16 C 71.54 64.09 71.19 68.05 71.24 71.99 C 68.21 72.06 65.18 71.94 62.15 71.76 C 62.89 70.66 63.64 69.57 64.40 68.48 C 65.63 68.34 66.86 68.20 68.08 68.04 C 68.02 65.78 67.97 63.52 67.91 61.26 C 64.74 57.61 60.79 54.66 58.02 50.67 Z" />
<path fill="#b9d6f0" opacity="1.00" d=" M 58.19 58.52 C 59.62 58.51 61.04 58.50 62.47 58.51 C 63.43 59.71 64.41 60.88 65.43 62.03 C 64.48 62.03 62.57 62.03 61.62 62.03 C 61.59 64.55 61.59 67.07 61.56 69.59 C 57.85 73.14 54.24 76.79 50.71 80.52 C 50.34 80.51 49.61 80.51 49.24 80.51 C 45.90 76.64 41.86 73.42 38.69 69.43 C 38.20 67.04 38.41 64.57 38.35 62.15 C 37.40 62.09 35.49 61.98 34.53 61.93 C 36.23 59.27 38.80 57.74 42.00 58.61 C 42.01 61.71 41.99 64.81 41.97 67.90 C 44.68 70.61 47.41 73.30 49.99 76.13 C 51.77 74.27 53.51 72.37 55.34 70.57 C 56.23 69.68 57.11 68.77 57.99 67.86 C 57.99 66.23 58.01 64.60 58.04 62.96 C 58.07 61.48 58.12 60.00 58.19 58.52 Z" />
<path fill="#b9d6f0" opacity="1.00" d=" M 44.82 67.93 C 41.57 64.57 46.40 61.72 48.51 59.50 C 48.78 60.78 49.08 62.05 49.41 63.32 C 47.79 64.77 46.30 66.34 44.82 67.93 Z" />
<path fill="#b9d6f0" opacity="1.00" d=" M 50.42 62.53 C 50.87 61.59 51.28 60.63 51.66 59.65 C 53.02 60.89 54.41 62.11 55.66 63.47 C 56.44 64.99 56.70 66.60 55.29 67.82 C 53.46 66.27 51.87 64.44 50.42 62.53 Z" />
</g>
<g id="#58739eff">
<path fill="#58739e" opacity="1.00" d=" M 59.44 29.32 C 60.02 29.03 61.19 28.45 61.78 28.16 L 62.20 29.01 C 62.85 30.34 63.52 31.66 64.17 33.00 C 65.06 32.92 66.83 32.76 67.72 32.68 C 67.55 33.18 67.20 34.18 67.02 34.68 C 65.61 34.46 64.19 34.24 62.78 34.01 C 63.18 35.59 63.52 37.18 63.79 38.79 C 63.28 38.85 62.24 38.97 61.72 39.03 C 61.53 35.72 62.58 31.58 59.44 29.32 Z" />
</g>
<g id="#627ba1ff">
<path fill="#627ba1" opacity="1.00" d=" M 55.13 30.35 C 56.08 31.29 57.04 32.22 58.00 33.14 C 58.01 34.80 58.02 36.46 58.02 38.13 C 57.46 37.98 56.33 37.69 55.77 37.54 C 55.94 36.89 56.28 35.59 56.45 34.94 L 55.95 33.91 C 55.33 32.81 55.05 31.63 55.13 30.35 Z" />
</g>
<g id="#536b94ff">
<path fill="#536b94" opacity="1.00" d=" M 79.77 49.52 C 82.23 48.04 82.19 53.01 79.76 51.45 C 79.77 50.97 79.77 50.00 79.77 49.52 Z" />
</g>
<g id="#9cb2c7ff">
<path fill="#9cb2c7" opacity="1.00" d=" M 49.18 58.12 C 49.58 58.14 50.37 58.19 50.76 58.22 C 50.98 58.57 51.43 59.29 51.66 59.65 C 51.28 60.63 50.87 61.59 50.42 62.53 C 50.16 62.73 49.66 63.12 49.41 63.32 C 49.08 62.05 48.78 60.78 48.51 59.50 C 48.68 59.15 49.01 58.46 49.18 58.12 Z" />
</g>
<g id="#617aa1ff">
<path fill="#617aa1" opacity="1.00" d=" M 55.66 63.47 C 56.25 63.34 57.44 63.09 58.04 62.96 C 58.01 64.60 57.99 66.23 57.99 67.86 C 57.11 68.77 56.23 69.68 55.34 70.57 C 55.01 70.02 54.36 68.91 54.03 68.36 L 55.29 67.82 C 56.70 66.60 56.44 64.99 55.66 63.47 Z" />
</g>
</svg>
