<?xml version="1.0" encoding="UTF-8" ?>
<!DOCTYPE svg PUBLIC "-//W3C//DTD SVG 1.1//EN" "http://www.w3.org/Graphics/SVG/1.1/DTD/svg11.dtd">
<svg width="45pt" height="45pt" viewBox="0 0 45 45" version="1.1" xmlns="http://www.w3.org/2000/svg">
<g id="#297a93ff">
<path fill="#297a93" opacity="1.00" d=" M 0.00 0.00 L 45.00 0.00 L 45.00 45.00 L 0.00 45.00 L 0.00 0.00 M 18.48 11.85 C 17.11 16.72 19.59 21.36 20.45 26.06 C 21.29 30.89 17.73 35.90 12.92 36.76 C 10.48 37.36 8.11 36.33 5.77 35.81 C 7.88 37.87 9.92 40.09 12.64 41.36 C 20.62 45.69 31.58 43.29 36.85 35.86 C 40.17 31.14 39.88 24.64 37.29 19.65 C 35.37 15.75 31.89 12.78 30.38 8.66 C 29.40 5.98 31.07 3.56 32.64 1.56 C 26.36 1.51 19.92 5.49 18.48 11.85 Z" />
</g>
<g id="#ffffffff">
<path fill="#ffffff" opacity="1.00" d=" M 18.48 11.85 C 19.92 5.49 26.36 1.51 32.64 1.56 C 31.07 3.56 29.40 5.98 30.38 8.66 C 31.89 12.78 35.37 15.75 37.29 19.65 C 39.88 24.64 40.17 31.14 36.85 35.86 C 31.58 43.29 20.62 45.69 12.64 41.36 C 9.92 40.09 7.88 37.87 5.77 35.81 C 8.11 36.33 10.48 37.36 12.92 36.76 C 17.73 35.90 21.29 30.89 20.45 26.06 C 19.59 21.36 17.11 16.72 18.48 11.85 Z" />
</g>
</svg>
